PathFileType	4	(X/Y/Z)	C:\Users\dbl\Desktop\20210112(1)\20210112\bx_y_5_1802.trc
DataRate	CameraRate	NumFrames	NumMarkers	Units	OrigDataRate	OrigDataStartFrame	OrigNumFrames
50.00	50.00	       4	43	mm	50.00	180	       478
Frame#	Time	Top.Head			R.Acromium			L.Acromium			Sternum			R.ASIS			L.ASIS			V.Sacral			R.Thigh.Upper			R.Thigh.Front			R.Thigh.Rear			R.Knee.Lat			R.Knee.Med			R.Shank.Upper			R.Shank.Front			R.Shank.Rear			R.Ankle.Lat			R.Midfoot.Lat			R.Toe.Lat			R.Toe.Tip			R.Toe.Med			R.Ankle.Med			R.Midfoot.Sup			R.Heel			L.Thigh.Upper			L.Thigh.Front			L.Thigh.Rear			L.Knee.Lat			L.Knee.Med			L.Shank.Upper			L.Shank.Front			L.Shank.Rear			L.Ankle.Lat			L.Midfoot.Lat			L.Toe.Lat			L.Toe.Tip			L.Toe.Med			L.Ankle.Med			L.Midfoot.Sup			L.Heel			origin1 front left			origin2 front right			origin 3 back right			origin 4 back leftt			
		X1	Y1	Z1	X2	Y2	Z2	X3	Y3	Z3	X4	Y4	Z4	X5	Y5	Z5	X6	Y6	Z6	X7	Y7	Z7	X8	Y8	Z8	X9	Y9	Z9	X10	Y10	Z10	X11	Y11	Z11	X12	Y12	Z12	X13	Y13	Z13	X14	Y14	Z14	X15	Y15	Z15	X16	Y16	Z16	X17	Y17	Z17	X18	Y18	Z18	X19	Y19	Z19	X20	Y20	Z20	X21	Y21	Z21	X22	Y22	Z22	X23	Y23	Z23	X24	Y24	Z24	X25	Y25	Z25	X26	Y26	Z26	X27	Y27	Z27	X28	Y28	Z28	X29	Y29	Z29	X30	Y30	Z30	X31	Y31	Z31	X32	Y32	Z32	X33	Y33	Z33	X34	Y34	Z34	X35	Y35	Z35	X36	Y36	Z36	X37	Y37	Z37	X38	Y38	Z38	X39	Y39	Z39	X40	Y40	Z40	X41	Y41	Z41	X42	Y42	Z42	X43	Y43	Z43	

180	3.580	-630.49316	106.61617	1831.68970	-626.48975	-76.81046	1525.56396	-635.28644	282.91794	1523.91931	-588.60040	95.43665	1399.74609	-680.82098	-14.16959	1057.93970	-657.34180	212.17644	1068.24988	-873.04669	111.82973	1046.06470	-714.03424	-69.88508	865.24683	-641.89258	-13.60105	823.66248	-717.16455	-51.62873	711.72443	-704.11664	-31.44761	618.31250	-672.32428	75.36839	582.94153	-708.81750	-27.89104	568.84955	-655.96100	8.78179	520.14227	-760.35730	-31.67114	490.02353	-768.15289	-4.52915	207.65126	-667.37482	-71.33605	159.70596	-625.69305	-83.02100	156.95822	-560.44928	-44.65980	161.91124	-602.53619	14.45726	168.87212	-711.26965	74.88057	216.45224	-672.74701	52.29081	160.46117	-791.26697	58.73372	176.91327	-689.23236	286.21918	886.79932	-629.62421	216.38936	847.74207	-707.36957	279.67374	751.31964	-708.28259	256.07452	635.67627	-661.38141	150.28276	583.70715	-700.57721	251.05785	577.92609	-646.84900	209.79520	533.54236	-745.55493	257.82291	502.79819	-769.37231	223.41302	204.80415	-667.19031	300.24881	159.31091	-630.20929	308.88779	160.46922	-562.01221	264.36325	165.65016	-595.21387	226.75618	173.33253	-707.92108	152.92017	214.77730	-674.48224	176.02257	156.63719	-793.77802	171.65399	185.25383	-528.25067	304.05234	146.26317	-517.75372	-72.55588	142.92592	-876.02362	-78.85875	141.21182	-882.56586	296.14673	144.65816	
181	3.600	-635.17322	106.62927	1834.85620	-629.99786	-76.81715	1528.88330	-639.57336	282.91489	1527.02502	-589.76575	95.65565	1403.16602	-676.52570	-14.41516	1058.15369	-653.68445	211.88284	1070.50085	-869.46698	111.22473	1046.77478	-711.71124	-69.87571	865.69629	-640.56299	-13.29502	822.83832	-717.37720	-51.10641	712.36035	-705.98993	-30.64609	618.54547	-674.46716	76.42725	583.16162	-710.89948	-26.97483	569.35938	-657.94025	9.74915	520.73663	-762.13782	-30.85454	490.27341	-768.35461	-4.38822	207.67068	-667.31458	-71.30344	159.74489	-625.66736	-83.06174	156.93436	-560.44684	-44.68828	161.92636	-602.50317	14.48438	168.90320	-711.42371	74.87685	216.51207	-672.72424	52.32283	160.52528	-791.22626	58.83931	176.90190	-687.02722	285.69592	887.01428	-627.80267	216.11481	847.23480	-707.29608	279.02029	751.80157	-710.03888	255.46748	636.17816	-663.64899	149.44899	584.00928	-702.88312	250.25743	578.20667	-648.99066	209.14378	534.00214	-747.63135	257.27841	503.05722	-769.50861	223.39420	204.74834	-667.19354	300.24826	159.29037	-630.20563	308.92340	160.47386	-562.01917	264.35727	165.62856	-595.23633	226.69336	173.29620	-708.13727	152.95537	214.80513	-674.45898	176.01169	156.70242	-793.94617	171.70461	185.20793	-528.24841	304.04419	146.25307	-517.72870	-72.61314	142.95882	-876.01068	-78.87394	141.20320	-882.52191	296.09467	144.63841	
182	3.620	-639.62030	106.74433	1837.64490	-633.50610	-76.78452	1531.93811	-643.66516	283.05991	1529.83264	-591.00037	95.83628	1406.20935	-672.34229	-14.57335	1058.25452	-650.16919	211.56323	1072.70447	-866.12653	110.78204	1047.38928	-709.66815	-69.92692	866.02667	-639.01935	-12.99881	822.33466	-717.51483	-50.60615	712.87671	-707.70313	-29.80735	618.73444	-676.39642	77.42914	583.36731	-712.83441	-26.03261	569.84381	-659.80255	10.72911	521.31848	-763.75055	-30.08032	490.46808	-768.56842	-4.22436	207.68103	-667.29834	-71.23384	159.75169	-625.66187	-83.05473	156.92393	-560.44049	-44.71871	161.94768	-602.47437	14.50865	168.88756	-711.57318	74.95360	216.56459	-672.67615	52.34180	160.56674	-791.23022	58.98943	176.95438	-684.81317	285.32401	887.21918	-625.98602	215.93808	846.75104	-707.16870	278.48178	752.21533	-711.62244	254.98405	636.66119	-665.73621	148.73727	584.24823	-705.01263	249.47847	578.38892	-650.93896	208.53716	534.38965	-749.54657	256.73694	503.32153	-769.67957	223.33247	204.69655	-667.22418	300.25836	159.27180	-630.19458	308.94080	160.46681	-562.03619	264.34808	165.61302	-595.26031	226.61423	173.27112	-708.33234	153.05351	214.84415	-674.43506	176.00548	156.75029	-794.11932	171.72206	185.14912	-528.24402	304.05557	146.26945	-517.69763	-72.64496	143.00424	-875.99072	-78.88194	141.20534	-882.49463	296.05011	144.61278	
183	3.640	-643.85748	106.95890	1840.06775	-637.00122	-76.74258	1534.72375	-647.51691	283.25558	1532.32983	-592.28021	96.02751	1408.94653	-668.39203	-14.67558	1058.39954	-646.79218	211.21962	1074.85791	-863.00348	110.46886	1047.88635	-707.74768	-69.96294	866.20978	-637.41681	-12.77991	821.80994	-717.61035	-49.96747	713.18787	-709.22247	-29.01914	618.95886	-678.18298	78.34999	583.52301	-714.74976	-25.03691	570.22058	-661.57465	11.71041	521.87476	-765.28290	-29.37103	490.59006	-768.75574	-4.05133	207.68565	-667.31970	-71.15280	159.71541	-625.67639	-83.00187	156.92918	-560.43524	-44.74441	161.97630	-602.44672	14.55082	168.82732	-711.71625	75.09356	216.66579	-672.62531	52.33722	160.58905	-791.24359	59.10877	177.02394	-682.66461	285.12012	887.39117	-624.26465	215.80183	846.25989	-706.95770	278.04642	752.50922	-713.04218	254.58232	637.08368	-667.59991	148.16856	584.35510	-706.94031	248.78140	578.52777	-652.72552	208.00443	534.73901	-751.27350	256.19305	503.55957	-769.85730	223.23448	204.65839	-667.26587	300.30692	159.24094	-630.17578	308.92715	160.43912	-562.04553	264.33600	165.61229	-595.27557	226.52641	173.24315	-708.49103	153.17659	214.90186	-674.43378	175.98854	156.76645	-794.25330	171.68993	185.07062	-528.24933	304.07919	146.28732	-517.66193	-72.64016	143.04718	-875.97797	-78.88360	141.21022	-882.50439	296.04092	144.59203	
